<?xml version="1.0" encoding="utf-8"?>
<svg height="1007" version="1.1" width="1410" xmlns="http://www.w3.org/2000/svg" xmlns:xlink="http://www.w3.org/1999/xlink">
 <title>
  Paris Metro Map
 </title>
 <rect fill="#ffffff" height="1007" id="bg" width="1410" x="0" y="0"/>
 <g id="legend">
  <rect fill="#f2f2f2" height="295" id="lgbox" width="333" x="0" y="810"/>
  <g id="title">
   <text fill="#001e0d" font-family="Arial" font-size="20" font-weight="bold" id="tttitle" x="10" y="837">
    Paris Metro Map
   </text>
   <text fill="#001e0d" font-family="Arial" font-size="10" font-weight="bold" id="ttupd" x="10" y="857">
    Intelligent Systems project
   </text>
  </g>
  <g id="lgcolorbox">
   <rect fill="#009645" height="12.5" width="313" x="10" y="867"/>
   <rect fill="#d42e12" height="12.5" width="313" x="10" y="879.5"/>
  </g>
  <g fill="#ffffff" font-family="Arial" id="lglabels" line-height="100%">
   <text font-size="11" font-weight="bold" id="labelEast West Line (EW)" x="20" y="877">
    East West Line (EW)
   </text>
   <text font-size="11" font-weight="bold" id="labelNorth South Line (NS)" x="20" y="889.5">
    North South Line (NS)
   </text>
  </g>
 </g>
 <g fill="none" id="lines" stroke-width="4">
  <g id="ew" stroke="#009645">
   <path d="m1334 694 v-164.5 s0 -5, -5 -5 h-46 v104.5 s0 5, -5 5 h-33 h-54 s-5 0, -5 5  v20 h-60 h-60 h-87 s-5 0, -5 5  v-4 h-18.5 s-5 0, -5 5  v10 h-19.5 s-5 0, -5 5  v19 h-222.5 s-5 0, -5 5  v152 v-103 s0 -5, -5 -5 h-63.5 h-29.5 s-5 0, -5 -5  v-29 v-36 s0 -5, -5 -5 h-35.799999999999955 v-31 s0 -5, -5 -5 h-30.700000000000045 h-63 s-5 0, -5 -5  v-62 v-41 s0 -5, -5 -5 h-41 h-153 s-5 0, -5 -5  v-5 h-45 h-47 h-75 s-5 0, -5 5  v21 v28 v28 v28 v28 v28"/>
  </g>
  <g id="stns_ns" stroke="#d42e12">
   <path d="m286 413 v-92 v-198 v103 v-154 s0 -5, 5 -5 h61 h83 h197 h103 h46 s5 0, 5 5  v32 v49 v49 v48 v56 v122 v34 s0 5, -5 5 h-11 v26 s0 5, -5 5 h-26 v83 s0 5, -5 5 h-74 v41 s0 5, 5 5 h37 v318 s0 5, 5 5 h126"/>
  </g>
  <g id="stns_ne" stroke="#9900aa">
   <path d="m723.5 724.5 v-141.10000000000002 s0 -5, 5 -5 h79.0 h21.5 s5 0, 5 -5  v-21.399999999999977 v-22 s0 -5, 5 -5 h22 v-22 s0 -5, 5 -5 h22 v-63 s0 -5, 5 -5 h63 h22 s5 0, 5 -5  v-21.5 v-30.5 s0 -5, 5 -5 h30"/>
  </g>
  <g id="stns_cc" stroke="#fa9e0d">
   <path d="m824 739 v51 s0 5, 5 5 h51 h85 s5 0, 5 -5  v-4 v-26.5 s0 -5, 5 -5 h10 v-29.0 s0 -5, 5 -5 h6 v-28.5 s0 -5, 5 -5 h2 v-130 s0 -5, -5 -5 h-13.5 v-33 s0 -5, -5 -5 h-15.5 h-105 s-5 0, -5 -5  v-93 h-128 s-5 0, -5 -5  v-20.19999999999999 h-200.5 s-5 0, -5 5  v118.19999999999999 v30 s0 5, -5 5 h-13.5 v83 s0 5, -5 5 h-16.30000000000001 v32 s0 5, 5 5 h-4.699999999999989 v30 s0 5, 5 5 h0 v36 s0 5, 5 5 h7.5 v37 s0 5, 5 5 h15.299999999999955 v30.5 s0 5, 5 5 h21.200000000000045"/>
  </g>
  <g id="stns_dt" stroke="#005ec4">
   <path d="m479 268 v41 v44 v48 s0 5, 5 5 h1 v14 s0 5, 5 5 h12 v17.5 s0 5, 5 5 h17 h129 s5 0, 5 5  v33.5 h155 s5 0, 5 5  v154 v216 s0 5, -5 5 h-9 v-58 s0 -5, -5 -5 h-57 v-71 s0 -5, -5 -5 h-33.5 h123.5 s5 0, 5 -5  v-29 v-28.200000000000045 s0 -5, 5 -5 h28 h26 s5 0, 5 -5  v-25.799999999999955 h26 s5 0, 5 -5  v-21.5 h37 s5 0, 5 -5  v2.5 h77 h43 h40 h43.5 h38.5 h70 s5 0, 5 5  v27 v35"/>
  </g>
  <g id="stns_te" stroke="#784008">
   <path d="m496 34 v78 s0 5, 5 5 h78 h40 s5 0, 5 5  v39.80000000000001 v41.19999999999999 s0 5, 5 5 h29 v39 v62.5 v47.5"/>
  </g>
  <g id="stns_ints" stroke="#000000" stroke-dasharray="4, 4">
   <path d="m760.2 689 v219.29999999999995 s0 5, 5 5 h27.799999999999955 h89 s5 0, 5 -5  v-37.299999999999955 h49.299999999999955 s5 0, 5 -5  v-45 v-413.2 s0 -5, -5 -5 h-278.29999999999995 h341 s5 0, 5 5  v251.2 v-54 s0 -5, -5 -5 h1 v-131.8 s0 -5, -5 -5 h-72 h-132 s-5 0, -5 -5  v-64.19999999999999 h-233 s-5 0, -5 5  v72.5 v122.5 s0 5, -5 5 h-62 v262 s0 5, 5 5 h95 h700 s5 0, 5 -5  v-167 v-88.5 s0 -5, -5 -5 h-36 v53.5 s0 5, -5 5 h-13 h-323 s-5 0, -5 5  v62 h-63.700000000000045 s-5 0, -5 5  v59 v27 s0 5, -5 5 h-26.299999999999955 h-137 s-5 0, -5 -5  v-26.5 h-366 s-5 0, -5 -5  v-271.5 h402.5 s5 0, 5 5  v235 v-142.5 s0 -5, 5 -5 h81.5 v-296.2 s0 -5, 5 -5 h295.70000000000005 h91.29999999999995 s5 0, 5 -5  v-90.80000000000001 h-886 s-5 0, -5 5  v11.0 h414 s5 0, 5 5  v301.5 v10 s0 5, 5 5 h10 v-316.5 s0 -5, -5 -5 h-236 v16.5 v-170 s0 -5, 5 -5 h45"/>
  </g>
 </g>
 <g fill="#ffffff" id="stns_icons" stroke-width="2">
  <a fill="#ffffff" xlink:href="#ew">
   <g id="stns_ew" stroke="#009645">
    <circle cx="1334" cy="694" data-value="65" id="cg2" r="3"/>
    <circle cx="1283" cy="524.5" data-value="42" id="ew1" r="3"/>
    <circle cx="1245" cy="634" data-value="40" id="ew3" r="3"/>
    <circle cx="1186" cy="659" data-value="38" id="ew5" r="3"/>
    <circle cx="1126" cy="659" data-value="37" id="ew6" r="3"/>
    <circle cx="1066" cy="659" data-value="36" id="ew7" r="3"/>
    <circle cx="974" cy="660" data-value="34" id="ew9" r="3"/>
    <circle cx="950.5" cy="675" data-value="33" id="ew10" r="3"/>
    <circle cx="926" cy="699" data-value="32" id="ew11" r="3"/>
    <circle cx="698.5" cy="856" data-value="14" id="ew15" r="3"/>
    <circle cx="630" cy="748" data-value="16" id="ew17" r="3"/>
    <circle cx="595.5" cy="714" data-value="17" id="ew18" r="3"/>
    <circle cx="554.7" cy="673" data-value="18" id="ew19" r="3"/>
    <circle cx="519" cy="637" data-value="19" id="ew20" r="3"/>
    <circle cx="451" cy="570" data-value="" id="ew22" r="3"/>
    <circle cx="405" cy="524" data-value="21" id="ew23" r="3"/>
    <circle cx="247" cy="514" data-value="25" id="ew25" r="3"/>
    <circle cx="202" cy="514" data-value="26" id="ew26" r="3"/>
    <circle cx="155" cy="514" data-value="27" id="ew27" r="3"/>
    <circle cx="75" cy="540" data-value="66" id="ew28" r="3"/>
    <circle cx="75" cy="568" data-value="67" id="ew29" r="3"/>
    <circle cx="75" cy="596" data-value="69" id="ew30" r="3"/>
    <circle cx="75" cy="624" data-value="70" id="ew31" r="3"/>
    <circle cx="75" cy="652" data-value="71" id="ew32" r="3"/>
    <circle cx="75" cy="680" data-value="72" id="ew33" r="3"/>
   </g>
  </a>
  <a fill="#ffffff" xlink:href="#ns">
   <g id="stns_ns" stroke="#d42e12">
    <circle cx="286" cy="413" data-value="28" id="ns2" r="3"/>
    <circle cx="286" cy="321" data-value="29" id="ns3" r="3"/>
    <circle cx="286" cy="123" data-value="48" id="ns5" r="3"/>
    <circle cx="286" cy="226" data-value="" id="ns6" r="3"/>
    <circle cx="352" cy="67" data-value="47" id="ns7" r="3"/>
    <circle cx="435" cy="67" data-value="46" id="ns8" r="3"/>
    <circle cx="632" cy="67" data-value="44" id="ns10" r="3"/>
    <circle cx="735" cy="67" data-value="43" id="ns11" r="3"/>
    <circle cx="786" cy="104" data-value="72" id="ns12" r="3"/>
    <circle cx="786" cy="153" data-value="22" id="ns13" r="3"/>
    <circle cx="786" cy="202" data-value="23" id="ns14" r="3"/>
    <circle cx="786" cy="250" data-value="1" id="ns15" r="3"/>
    <circle cx="786" cy="306" data-value="2" id="ns16" r="3"/>
    <circle cx="786" cy="428" data-value="4" id="ns18" r="3"/>
    <circle cx="770" cy="467" data-value="5" id="ns19" r="3"/>
    <circle cx="739" cy="498" data-value="6" id="ns20" r="3"/>
    <circle cx="660" cy="586" data-value="8" id="ns22" r="3"/>
    <circle cx="702" cy="632" data-value="9" id="ns23" r="3"/>
    <circle cx="833" cy="955" data-value="68" id="ns28" r="3"/>
   </g>
  </a>
  <a fill="#ffffff" xlink:href="#ne">
   <g id="stns_ne" stroke="#9900aa">
    <circle cx="723.5" cy="724.5" data-value="113" id="ne5" r="3"/>
    <circle cx="807.5" cy="578.4" data-value="110" id="ne8" r="3"/>
    <circle cx="834" cy="552" data-value="109" id="ne9" r="3"/>
    <circle cx="861" cy="525" data-value="108" id="ne10" r="3"/>
    <circle cx="888" cy="498" data-value="107" id="ne11" r="3"/>
    <circle cx="956" cy="430" data-value="105" id="ne13" r="3"/>
    <circle cx="983" cy="403.5" data-value="104" id="ne14" r="3"/>
    <circle cx="1018" cy="368" data-value="103" id="ne15" r="3"/>
   </g>
  </a>
  <a fill="#ffffff" xlink:href="#cc">
   <g id="stns_cc" stroke="#fa9e0d">
    <circle cx="824" cy="739" data-value="215" id="cc2" r="3"/>
    <circle cx="880" cy="795" data-value="214" id="cc3" r="3"/>
    <circle cx="970" cy="786" data-value="212" id="cc5" r="3"/>
    <circle cx="985" cy="754.5" data-value="211" id="cc6" r="3"/>
    <circle cx="996" cy="720.5" data-value="210" id="cc7" r="3"/>
    <circle cx="1003" cy="687" data-value="209" id="cc8" r="3"/>
    <circle cx="984.5" cy="552" data-value="206" id="cc11" r="3"/>
    <circle cx="964" cy="514" data-value="201" id="cc12" r="3"/>
    <circle cx="854" cy="416" data-value="203" id="cc14" r="3"/>
    <circle cx="721" cy="390.8" data-value="205" id="cc16" r="3"/>
    <circle cx="515.5" cy="514" data-value="218" id="cc20" r="3"/>
    <circle cx="497" cy="549" data-value="219" id="cc21" r="3"/>
    <circle cx="475.7" cy="637" data-value="221" id="cc23" r="3"/>
    <circle cx="476" cy="674" data-value="222" id="cc24" r="3"/>
    <circle cx="481" cy="709" data-value="223" id="cc25" r="3"/>
    <circle cx="493.5" cy="750" data-value="224" id="cc26" r="3"/>
    <circle cx="513.8" cy="792" data-value="225" id="cc27" r="3"/>
    <circle cx="540" cy="827.5" data-value="226" id="cc28" r="3"/>
   </g>
  </a>
  <a fill="#ffffff" xlink:href="#dt">
   <g id="stns_dt" stroke="#005ec4">
    <circle cx="479" cy="268" data-value="307" id="dt2" r="3"/>
    <circle cx="479" cy="309" data-value="308" id="dt3" r="3"/>
    <circle cx="479" cy="353" data-value="309" id="dt5" r="3"/>
    <circle cx="485" cy="406" data-value="310" id="dt6" r="3"/>
    <circle cx="502" cy="425" data-value="311" id="dt7" r="3"/>
    <circle cx="524" cy="447.5" data-value="312" id="dt8" r="3"/>
    <circle cx="658" cy="486" data-value="314" id="dt10" r="3"/>
    <circle cx="818" cy="645" data-value="317" id="dt13" r="3"/>
    <circle cx="804" cy="866" data-value="303" id="dt17" r="3"/>
    <circle cx="742" cy="803" data-value="304" id="dt18" r="3"/>
    <circle cx="703.5" cy="727" data-value="318" id="dt20" r="3"/>
    <circle cx="832" cy="693" data-value="319" id="dt21" r="3"/>
    <circle cx="865" cy="659.8" data-value="320" id="dt22" r="3"/>
    <circle cx="896" cy="629" data-value="321" id="dt23" r="3"/>
    <circle cx="927" cy="602.5" data-value="322" id="dt24" r="3"/>
    <circle cx="969" cy="600" data-value="323" id="dt25" r="3"/>
    <circle cx="1046" cy="600" data-value="325" id="dt27" r="3"/>
    <circle cx="1089" cy="600" data-value="326" id="dt28" r="3"/>
    <circle cx="1129" cy="600" data-value="327" id="dt29" r="3"/>
    <circle cx="1172.5" cy="600" data-value="328" id="dt30" r="3"/>
    <circle cx="1211" cy="600" data-value="329" id="dt31" r="3"/>
    <circle cx="1286" cy="632" data-value="331" id="dt33" r="3"/>
    <circle cx="1286" cy="667" data-value="332" id="dt34" r="3"/>
   </g>
  </a>
  <a fill="#ffffff" xlink:href="#te">
   <g id="stns_te" stroke="#784008">
    <circle cx="496" cy="34" data-value="401" id="te1" r="3"/>
    <circle cx="579" cy="117" data-value="403" id="te3" r="3"/>
    <circle cx="624" cy="161.8" data-value="404" id="te4" r="3"/>
    <circle cx="658" cy="208" data-value="405" id="te5" r="3"/>
    <circle cx="658" cy="247" data-value="406" id="te6" r="3"/>
    <circle cx="658" cy="309.5" data-value="407" id="te7" r="3"/>
    <circle cx="658" cy="357" data-value="408" id="te8" r="3"/>
   </g>
  </a>
  <a fill="#ffffff" xlink:href="#ints">
   <g id="stns_ints" stroke="#000000" stroke-width="3">
    <circle cx="760.2" cy="689" data-value="10" id="ns24/ne6/cc1" r="5.7"/>
    <circle cx="793" cy="913.3" data-value="13" id="ns27/ce2" r="5.7"/>
    <circle cx="887" cy="871" data-value="229" id="ce1/dt16" r="5.7"/>
    <circle cx="941.3" cy="821" data-value="213" id="cc4/dt15" r="5.7"/>
    <circle cx="658" cy="402.8" data-value="216" id="cc17/te9" r="5.7"/>
    <circle cx="1004" cy="659" data-value="35" id="ew8/cc9" r="5.7"/>
    <circle cx="1000" cy="600" data-value="207" id="cc10/dt26" r="5.7"/>
    <circle cx="923" cy="463.2" data-value="106" id="ne12/cc13" r="5.7"/>
    <circle cx="786" cy="394" data-value="3" id="ns17/cc15" r="5.7"/>
    <circle cx="548" cy="471.5" data-value="217" id="cc19/dt9" r="5.7"/>
    <circle cx="481" cy="599" data-value="20" id="ew21/cc22" r="5.7"/>
    <circle cx="581" cy="866" data-value="116" id="ne1/cc29" r="5.7"/>
    <circle cx="1286" cy="694" data-value="63" id="cg1/dt35" r="5.7"/>
    <circle cx="1245" cy="600.5" data-value="41" id="ew2/dt32" r="5.7"/>
    <circle cx="1227" cy="659" data-value="39" id="ew4/cg" r="5.7"/>
    <circle cx="899" cy="726" data-value="31" id="ew12/dt14" r="5.7"/>
    <circle cx="830.3" cy="790" data-value="11" id="ns25/ew13" r="5.7"/>
    <circle cx="799" cy="822" data-value="12" id="ns26/ew14" r="5.7"/>
    <circle cx="657" cy="790.5" data-value="15" id="ew16/ne3" r="5.7"/>
    <circle cx="286" cy="514" data-value="24" id="ns1/ew24" r="5.7"/>
    <circle cx="693.5" cy="754" data-value="114" id="ne4/dt19" r="5.7"/>
    <circle cx="780" cy="606.5" data-value="111" id="ne7/dt12" r="5.7"/>
    <circle cx="1080.7" cy="305.3" data-value="102" id="ne16/stc" r="5.7"/>
    <circle cx="1177" cy="209.5" data-value="101" id="ne17/ptc" r="5.7"/>
    <circle cx="286" cy="225.5" data-value="30" id="ns4/bp1" r="5.7"/>
    <circle cx="705" cy="532" data-value="7" id="ns21/dt11" r="5.7"/>
    <circle cx="720" cy="547" data-value="7" id="ns21/dt11" r="5.7"/>
    <circle cx="479" cy="225.5" data-value="54" id="bp6/dt1" r="5.7"/>
    <circle cx="479" cy="242" data-value="54" id="bp6/dt1" r="5.7"/>
    <circle cx="529" cy="67" data-value="45" id="ns9/te2" r="5.7"/>
   </g>
  </a>
 </g>
 <g font-family="Arial" id="stns_labels" line-height="100%">
  <g fill="#000000" id="lbew">
   <text font-size="12" id="lbcg1" x="1255" y="707">
    Expo
   </text>
   <text font-size="12" id="lbcg2a" x="1310" y="707">
    Changi
   </text>
   <text font-size="12" id="lbcg2b" x="1312" y="719">
    Airport
   </text>
   <text font-size="12" id="lbew1" x="1289" y="522">
    Pasir Ris
   </text>
   <text font-size="12" id="lbew2" x="1250" y="594">
    Tampines
   </text>
   <text font-size="12" id="lbew3" x="1209" y="637">
    Simei
   </text>
   <text font-size="12" id="lbew5" x="1171" y="672">
    Bedok
   </text>
   <text font-size="12" id="lbew6" x="1092" y="653">
    Kembangan
   </text>
   <text font-size="12" id="lbew7" x="1050" y="672">
    Eunos
   </text>
   <text font-size="12" id="lbew9" x="945" y="653">
    Aljunied
   </text>
   <text font-size="12" id="lbew10" x="906" y="673">
    Kallang
   </text>
   <text font-size="12" id="lbew11" x="932" y="707">
    Lavender
   </text>
   <text font-size="12" id="lbew15a" x="650" y="864">
    Tanjong
   </text>
   <text font-size="12" id="lbew15b" x="660" y="876">
    Pagar
   </text>
   <text font-size="12" id="lbew17a" x="595" y="753">
    Tiong
   </text>
   <text font-size="12" id="lbew17b" x="593" y="765">
    Bahru
   </text>
   <text font-size="12" id="lbew18" x="554" y="721">
    Redhill
   </text>
   <text font-size="12" id="lbew19" x="561" y="672.5">
    Queenstown
   </text>
   <text font-size="12" id="lbew20" x="525" y="636">
    Commonwealth
   </text>
   <text font-size="12" id="lbew22" x="418" y="581">
    Dover
   </text>
   <text font-size="12" id="lbew23" x="411" y="526">
    Clementi
   </text>
   <text font-size="12" id="lbew25a" x="224" y="527">
    Chinese
   </text>
   <text font-size="12" id="lbew25b" x="226" y="539">
    Garden
   </text>
   <text font-size="12" id="lbew26" x="178" y="508">
    Lakeside
   </text>
   <text font-size="12" id="lbew27" x="100" y="508">
    Boon Lay
   </text>
   <text font-size="12" id="lbew28" x="25" y="544">
    Pioneer
   </text>
   <text font-size="12" id="lbew29a" x="47" y="568">
    Joo
   </text>
   <text font-size="12" id="lbew29b" x="39" y="580">
    Koon
   </text>
   <text font-size="12" id="lbew30" x="15" y="600">
    Gul Circle
   </text>
   <text font-size="12" id="lbew31a" x="41" y="620">
    Tuas
   </text>
   <text font-size="12" id="lbew31b" x="19" y="632">
    Crescent
   </text>
   <text font-size="12" id="lbew32a" x="10" y="652">
    Tuas West
   </text>
   <text font-size="12" id="lbew32a" x="39" y="664">
    Road
   </text>
   <text font-size="12" id="lbew33" x="15" y="684">
    Tuas Link
   </text>
  </g>
  <g fill="#000000" id="lbns">
   <text font-size="12" id="lbns2a" x="292" y="411">
    Bukit
   </text>
   <text font-size="12" id="lbns2b" x="292" y="423">
    Batok
   </text>
   <text font-size="12" id="lbns3a" x="292" y="320">
    Bukit
   </text>
   <text font-size="12" id="lbns3b" x="292" y="332">
    Gombak
   </text>
   <text font-size="12" id="lbns5" x="292" y="125">
    Yew Tee
   </text>
   <text font-size="12" id="lbns7" x="335.5" y="60">
    Kranji
   </text>
   <text font-size="12" id="lbns8" x="410" y="60">
    Marsiling
   </text>
   <text font-size="12" id="lbns10" x="606" y="60">
    Admiralty
   </text>
   <text font-size="12" id="lbns11" x="699" y="60">
    Sembawang
   </text>
   <text font-size="12" id="lbns12" x="731" y="108">
    Canberra
   </text>
   <text font-size="12" id="lbns13" x="743" y="156">
    Yishun
   </text>
   <text font-size="12" id="lbns14" x="746" y="205">
    Khatib
   </text>
   <text font-size="12" id="lbns15a" x="763" y="246">
    Yio
   </text>
   <text font-size="12" id="lbns15b" x="727" y="258">
    Chu Kang
   </text>
   <text font-size="12" id="lbns16a" x="758" y="317">
    Ang
   </text>
   <text font-size="12" id="lbns16b" x="742" y="329">
    Mo Kio
   </text>
   <text font-size="12" id="lbns18" x="734" y="432">
    Braddell
   </text>
   <text font-size="12" id="lbns19" x="779" y="473">
    Toa Payoh
   </text>
   <text font-size="12" id="lbns20" x="748" y="504">
    Novena
   </text>
   <text font-size="12" id="lbns22" x="609" y="590">
    Orchard
   </text>
   <text font-size="12" id="lbns23" x="709" y="634">
    Somerset
   </text>
   <text font-size="12" id="lbns28a" x="836" y="967">
    Marina
   </text>
   <text font-size="12" id="lbns28b" x="836" y="979">
    South Pier
   </text>
  </g>
  <g fill="#000000" id="lbne">
   <text font-size="12" id="lbne5a" x="730" y="729">
    Clarke
   </text>
   <text font-size="12" id="lbne5b" x="730" y="741">
    Quay
   </text>
   <text font-size="12" id="lbne8" x="813" y="588">
    Farrer Park
   </text>
   <text font-size="12" id="lbne9" x="840" y="559">
    Boon Keng
   </text>
   <text font-size="12" id="lbne10" x="867" y="532">
    Potong Pasir
   </text>
   <text font-size="12" id="lbne11" x="893" y="509">
    Woodleigh
   </text>
   <text font-size="12" id="lbne13" x="921" y="426">
    Kovan
   </text>
   <text font-size="12" id="lbne14" x="992" y="408">
    Hougang
   </text>
   <text font-size="12" id="lbne15" x="962" y="365">
    Buangkok
   </text>
   <text fill="#aaaaaa" font-size="12" id="lbne18" x="1264" y="132">
    Punggol Coast
   </text>
  </g>
  <g fill="#000000" id="lbcc">
   <text font-size="12" id="lbcc2a" x="830" y="727">
    Bras
   </text>
   <text font-size="12" id="lbcc2b" x="830" y="739">
    Basah
   </text>
   <text font-size="12" id="lbcc3" x="885" y="793">
    Esplanade
   </text>
   <text font-size="12" id="lbcc5a" x="976" y="790">
    Nicoll
   </text>
   <text font-size="12" id="lbcc5b" x="976" y="802">
    Highway
   </text>
   <text font-size="12" id="lbcc6" x="990" y="760">
    Stadium
   </text>
   <text font-size="12" id="lbcc7" x="1001" y="725">
    Mountbatten
   </text>
   <text font-size="12" id="lbcc8" x="1008" y="691">
    Dakota
   </text>
   <text font-size="12" id="lbcc10" x="1001" y="592">
    MacPherson
   </text>
   <text font-size="12" id="lbcc11" x="989" y="556">
    Tai Seng
   </text>
   <text font-size="12" id="lbcc12" x="968" y="514">
    Bartley
   </text>
   <text font-size="12" id="lbcc14a" x="855" y="398">
    Lorong
   </text>
   <text font-size="12" id="lbcc14b" x="855" y="410">
    Chuan
   </text>
   <text font-size="12" id="lbcc16" x="690" y="383">
    Marymount
   </text>
   <text font-size="12" id="lbcc20" x="522" y="520">
    Farrer Road
   </text>
   <text font-size="12" id="lbcc21a" x="504" y="556">
    Holland
   </text>
   <text font-size="12" id="lbcc21b" x="504" y="568">
    Village
   </text>
   <text font-size="12" id="lbcc23a" x="444" y="635">
    one-
   </text>
   <text font-size="12" id="lbcc23b" x="441" y="645">
    north
   </text>
   <text font-size="12" id="lbcc24a" x="483" y="674">
    Kent
   </text>
   <text font-size="12" id="lbcc24b" x="483" y="686">
    Ridge
   </text>
   <text font-size="12" id="lbcc25a" x="490" y="713">
    Haw Par
   </text>
   <text font-size="12" id="lbcc25b" x="490" y="725">
    Villa
   </text>
   <text font-size="12" id="lbcc26a" x="458" y="758">
    Pasir
   </text>
   <text font-size="12" id="lbcc26b" x="442" y="770">
    Panjang
   </text>
   <text font-size="12" id="lbcc27a" x="458" y="798">
    Labrador
   </text>
   <text font-size="12" id="lbcc27b" x="483" y="810">
    Park
   </text>
   <text font-size="12" id="lbcc28a" x="504" y="834">
    Telok
   </text>
   <text font-size="12" id="lbcc28b" x="488" y="846">
    Blangah
   </text>
  </g>
  <g fill="#000000" id="lbdt">
   <text font-size="12" id="lbdt2" x="430.5" y="272">
    Cashew
   </text>
   <text font-size="12" id="lbdt3" x="433" y="312">
    Hillview
   </text>
   <text font-size="12" id="lbdt5a" x="436" y="352">
    Beauty
   </text>
   <text font-size="12" id="lbdt5b" x="442" y="364">
    World
   </text>
   <text font-size="12" id="lbdt6a" x="415" y="396">
    King Albert
   </text>
   <text font-size="12" id="lbdt6b" x="450" y="408">
    Park
   </text>
   <text font-size="12" id="lbdt7a" x="503" y="407">
    Sixth
   </text>
   <text font-size="12" id="lbdt7b" x="503" y="419">
    Avenue
   </text>
   <text font-size="12" id="lbdt8a" x="529" y="434">
    Tan
   </text>
   <text font-size="12" id="lbdt8b" x="529" y="446">
    Kah Kee
   </text>
   <text font-size="12" id="lbdt10" x="664" y="484">
    Stevens
   </text>
   <text font-size="12" id="lbdt13" x="825" y="647">
    Rochor
   </text>
   <text font-size="12" id="lbdt17" x="809" y="865">
    Downtown
   </text>
   <text font-size="12" id="lbdt18a" x="747" y="789">
    Telok
   </text>
   <text font-size="12" id="lbdt18b" x="747" y="801">
    Ayer
   </text>
   <text font-size="12" id="lbdt20a" x="685" y="708">
    Fort
   </text>
   <text font-size="12" id="lbdt20b" x="662" y="720">
    Canning
   </text>
   <text font-size="12" id="lbdt21" x="780" y="686">
    Bencoolen
   </text>
   <text font-size="12" id="lbdt22a" x="868" y="672">
    Jalan
   </text>
   <text font-size="12" id="lbdt22b" x="868" y="684">
    Besar
   </text>
   <text font-size="12" id="lbdt23" x="829" y="625">
    Bendeemer
   </text>
   <text font-size="12" id="lbdt24a" x="906" y="582">
    Geylang
   </text>
   <text font-size="12" id="lbdt24b" x="912" y="594">
    Bahru
   </text>
   <text font-size="12" id="lbdt25" x="951.5" y="615">
    Mattar
   </text>
   <text font-size="12" id="lbdt27" x="1036" y="615">
    Ubi
   </text>
   <text font-size="12" id="lbdt28a" x="1077" y="615">
    Kaki
   </text>
   <text font-size="12" id="lbdt28b" x="1075" y="627">
    Bukit
   </text>
   <text font-size="12" id="lbdt29a" x="1110" y="582">
    Bedok
   </text>
   <text font-size="12" id="lbdt29b" x="1112" y="594">
    North
   </text>
   <text font-size="12" id="lbdt30a" x="1157" y="615">
    Bedok
   </text>
   <text font-size="12" id="lbdt30b" x="1149" y="627">
    Reservoir
   </text>
   <text font-size="12" id="lbdt31a" x="1184" y="582">
    Tampines
   </text>
   <text font-size="12" id="lbdt31b" x="1196" y="594">
    West
   </text>
   <text font-size="12" id="lbdt33a" x="1292" y="629">
    Tampines
   </text>
   <text font-size="12" id="lbdt33b" x="1292" y="641">
    East
   </text>
   <text font-size="12" id="lbdt34a" x="1292" y="663">
    Upper
   </text>
   <text font-size="12" id="lbdt34b" x="1292" y="675">
    Changi
   </text>
  </g>
  <g fill="#000000" id="lbteex">
   <text font-size="12" id="lbte1a" x="506" y="29">
    Woodlands
   </text>
   <text font-size="12" id="lbte1b" x="506" y="41">
    North
   </text>
   <text font-size="12" id="lbte3a" x="586" y="109">
    Woodlands
   </text>
   <text font-size="12" id="lbte3b" x="586" y="121">
    South
   </text>
   <text font-size="12" id="lbte4" x="632" y="163">
    Springleaf
   </text>
   <text font-size="12" id="lbte5" x="665" y="212">
    Lentor
   </text>
   <text font-size="12" id="lbte6" x="665" y="250">
    Mayflower
   </text>
   <text font-size="12" id="lbte7a" x="622" y="292">
    Bright
   </text>
   <text font-size="12" id="lbte7b" x="637" y="304">
    Hill
   </text>
   <text font-size="12" id="lbte8a" x="621" y="354">
    Upper
   </text>
   <text font-size="12" id="lbte8b" x="604" y="366">
    Thomson
   </text>
  </g>
  <g fill="#000000" font-weight="bold" id="lbint">
   <text font-size="12" id="lbcc1a" x="708" y="686">
    Dhoby
   </text>
   <text font-size="12" id="lbcc1b" x="709" y="698">
    Ghaut
   </text>
   <text font-size="12" id="lbce2a" x="759" y="931">
    Marina
   </text>
   <text font-size="12" id="lbce2b" x="776" y="943">
    Bay
   </text>
   <text font-size="12" id="lbce1" x="885" y="888">
    Bayfront
   </text>
   <text font-size="12" id="lbcc4" x="951" y="827">
    Promenade
   </text>
   <text font-size="12" id="lbcc9a" x="1010" y="641">
    Paya
   </text>
   <text font-size="12" id="lbcc9b" x="1010" y="653">
    Lebar
   </text>
   <text font-size="12" id="lbcc13" x="933" y="468">
    Serangoon
   </text>
   <text font-size="12" id="lbcc15" x="793" y="390">
    Bishan
   </text>
   <text font-size="12" id="lbcc19a" x="491" y="470">
    Botanic
   </text>
   <text font-size="12" id="lbcc17" x="598" y="397">
    Caldecott
   </text>
   <text font-size="12" id="lbcc19b" x="486" y="482">
    Gardens
   </text>
   <text font-size="12" id="lbcc22" x="489" y="600">
    Buona Vista
   </text>
   <text font-size="12" id="lbcc29" x="495" y="875">
    HarbourFront
   </text>
   <text font-size="12" id="lbew4a" x="1235" y="670">
    Tanah
   </text>
   <text font-size="12" id="lbew4b" x="1235" y="682">
    Merah
   </text>
   <text font-size="12" id="lbew12" x="908" y="730">
    Bugis
   </text>
   <text font-size="12" id="lbew13a" x="840" y="799">
    City
   </text>
   <text font-size="12" id="lbew13b" x="840" y="811">
    Hall
   </text>
   <text font-size="12" id="lbew14a" x="808" y="831">
    Raffles
   </text>
   <text font-size="12" id="lbew14b" x="808" y="843">
    Place
   </text>
   <text font-size="12" id="lbew16a" x="605" y="782">
    Outram
   </text>
   <text font-size="12" id="lbew16b" x="621" y="794">
    Park
   </text>
   <text font-size="12" id="lbew24a" x="292" y="495">
    Jurong
   </text>
   <text font-size="12" id="lbew24b" x="292" y="508">
    East
   </text>
   <text font-size="12" id="lbns4a" x="247" y="213">
    Choa
   </text>
   <text font-size="12" id="lbns4b" x="221" y="225">
    Chu Kang
   </text>
   <text font-size="12" id="lbns9" x="530" y="60">
    Woodlands
   </text>
   <text font-size="12" id="lbns21" x="714" y="536">
    Newton
   </text>
   <text font-size="12" id="lbne4" x="702" y="758">
    Chinatown
   </text>
   <text font-size="12" id="lbne7a" x="739" y="605">
    Little
   </text>
   <text font-size="12" id="lbne7b" x="738" y="617">
    India
   </text>
   <text font-size="12" id="lbne16" x="1013" y="309">
    Sengkang
   </text>
   <text font-size="12" id="lbne17" x="1117" y="215">
    Punggol
   </text>
   <text font-size="12" id="lbdt1a" x="465" y="204">
    Bukit
   </text>
   <text font-size="12" id="lbdt1b" x="456" y="215">
    Panjang
   </text>
  </g>
  <g fill="#000000" id="lbbpl">
   <text font-size="10" id="lbbp2a" x="307" y="211">
    South
   </text>
   <text font-size="10" id="lbbp2b" x="309" y="221">
    View
   </text>
   <text font-size="10" id="lbbp3a" x="345" y="239">
    Keat
   </text>
   <text font-size="10" id="lbbp3b" x="344" y="249">
    Hong
   </text>
   <text font-size="10" id="lbbp4a" x="380" y="211">
    Teck
   </text>
   <text font-size="10" id="lbbp4b" x="378" y="221">
    Whye
   </text>
   <text font-size="10" id="lbbp5" x="407" y="239">
    Phoenix
   </text>
   <text fill="#aaaaaa" font-size="10" id="lbbp14a" x="425" y="176">
    Ten Mile
   </text>
   <text fill="#aaaaaa" font-size="10" id="lbbp14b" x="425" y="186">
    Junction
   </text>
   <text font-size="10" id="lbbp7" x="525" y="242">
    Petir
   </text>
   <text font-size="10" id="lbbp8" x="525" y="272">
    Pending
   </text>
   <text font-size="10" id="lbbp9" x="569" y="251">
    Bangkit
   </text>
   <text font-size="10" id="lbbp10" x="569" y="229">
    Fajar
   </text>
   <text font-size="10" id="lbbp11" x="569" y="207">
    Segar
   </text>
   <text font-size="10" id="lbbp12" x="525" y="186">
    Jelapang
   </text>
   <text font-size="10" id="lbbp13" x="525" y="215">
    Senja
   </text>
  </g>
  <g fill="#000000" id="lbskl">
   <text font-size="10" id="lbse1" x="1096" y="315">
    Compassvale
   </text>
   <text font-size="10" id="lbse2" x="1155" y="335">
    Rumbia
   </text>
   <text font-size="10" id="lbse3" x="1157" y="379">
    Bakau
   </text>
   <text font-size="10" id="lbse4" x="1071" y="384">
    Kangkar
   </text>
   <text font-size="10" id="lbse5" x="1045" y="354">
    Ranggung
   </text>
   <text font-size="10" id="lbsw1a" x="1071" y="273">
    Cheng
   </text>
   <text font-size="10" id="lbsw1b" x="1071" y="283">
    Lim
   </text>
   <text font-size="10" id="lbsw2" x="1065" y="246">
    Farmway
   </text>
   <text font-size="10" id="lbsw3" x="1048" y="228">
    Kupang
   </text>
   <text font-size="10" id="lbsw4" x="970" y="226">
    Thanggam
   </text>
   <text font-size="10" id="lbsw5" x="961" y="246">
    Fernvale
   </text>
   <text font-size="10" id="lbsw6" x="974" y="277">
    Layar
   </text>
   <text font-size="10" id="lbsw7" x="973" y="293">
    Tongkang
   </text>
   <text font-size="10" id="lbsw8" x="1025" y="286">
    Renjong
   </text>
  </g>
  <g fill="#000000" id="lbpgl">
   <text font-size="10" id="lbpe1" x="1164" y="250">
    Cove
   </text>
   <text font-size="10" id="lbpe2" x="1154" y="275">
    Meridian
   </text>
   <text font-size="10" id="lbpe3" x="1160" y="293">
    Coral Edge
   </text>
   <text font-size="10" id="lbpe4" x="1252" y="282">
    Riviera
   </text>
   <text font-size="10" id="lbpe5" x="1259" y="245">
    Kadaloor
   </text>
   <text font-size="10" id="lbpe6" x="1243" y="229">
    Oasis
   </text>
   <text font-size="10" id="lbpe7" x="1198" y="219">
    Damai
   </text>
   <text font-size="10" id="lbpw1" x="1166" y="177">
    Sam Kee
   </text>
   <text fill="#aaaaaa" font-size="10" id="lbpw2" x="1162" y="150">
    Teck Lee
   </text>
   <text font-size="10" id="lbpw3" x="1145" y="131">
    Punggol Point
   </text>
   <text font-size="10" id="lbpw4" x="1056" y="142">
    Samudera
   </text>
   <text font-size="10" id="lbpw5" x="1063" y="181">
    Nibong
   </text>
   <text font-size="10" id="lbpw6" x="1075" y="198">
    Sumang
   </text>
   <text font-size="10" id="lbpw7a" x="1131" y="182">
    Soo
   </text>
   <text font-size="10" id="lbpw7b" x="1130" y="191">
    Teck
   </text>
  </g>
 </g>
</svg>