<svg xmlns="http://www.w3.org/2000/svg" xmlns:xlink="http://www.w3.org/1999/xlink" width="900" height="850" version="1.1"><title>IF684 | Paris Metro Map</title><rect id="bg" width="1410" height="1007" x="0" y="0" fill="#fff"/><defs><pattern id="smallGrid" width="10" height="10" patternUnits="userSpaceOnUse"><path fill="none" stroke="gray" stroke-width=".5" d="M 10 0 L 0 0 0 10"/></pattern><pattern id="grid" width="100" height="100" patternUnits="userSpaceOnUse"><rect width="100" height="100" fill="url(#smallGrid)"/><path fill="none" stroke="gray" stroke-width="1" d="M 100 0 L 0 0 0 100"/></pattern></defs><rect width="100%" height="100%" fill="url(#grid)"/><g id="legend"><rect id="lgbox" width="333" height="295" x="590" y="10" fill="#f2f2f2"/><g id="title"><text id="tttitle" x="600" y="30" fill="#001e0d" font-family="Arial" font-size="20" font-weight="bold">IF684 | Paris Metro Map</text><text id="ttupd" x="600" y="40" fill="#001e0d" font-family="Arial" font-size="10" font-weight="bold">Intelligent Systems project</text></g><g id="lgcolorbox"><rect width="313" height="12.5" x="600" y="50" fill="#0101ff"/><rect width="313" height="12.5" x="600" y="62.5" fill="#ff0"/><rect width="313" height="12.5" x="600" y="75" fill="#0f0"/><rect width="313" height="12.5" x="600" y="87.5" fill="red"/></g><g id="lglabels" fill="#fff" font-family="Arial" line-height="100%"><text id="labelLine_1" x="610" y="60" font-size="11" font-weight="bold">Line 1</text><text id="labelLine_2" x="610" y="72.5" font-size="11" font-weight="bold">Line 2</text><text id="labelLine_4" x="610" y="85" font-size="11" font-weight="bold">Line 4</text><text id="labelLine_13" x="610" y="97.5" font-size="11" font-weight="bold">Line 13</text></g></g><g id="lines" fill="none" stroke-width="4"><g id="Line_1" stroke="#0101ff"><path d="m40.0 360.0 h175.0 s5 0, 5 5 v45.0 h145.0 s5 0, 5 5 v55.0 h115.0 s5 0, 5 5 v25.0 h205.0 s5 0, 5 5 v95.0 v35.0 s0 5, 5 5 h25.0"/></g><g id="Line_2" stroke="#ff0"><path d="m180.0 460.0 v-40.0 s0 -5, 5 -5 h35.0 h145.0 s5 0, 5 -5 v-120.0 h145.0 s5 0, 5 -5 v-25.0 v335.0 s0 5, 5 5 h170.0 v25.0 s0 5, -5 5 h-20.0"/></g><g id="Line_4" stroke="#0f0"><path d="m420.0 790.0 v-85.0 s0 -5, 5 -5 h15.0 v-195.0 s0 -5, 5 -5 h40.0 v-240.0 s0 -5, 5 -5 h30.0 v-115.0"/></g><g id="Line_13" stroke="red"><path d="m250.0 120.0 v160.0 s0 5, 5 5 h120.0 v185.0 v225.0 s0 5, 5 5 h60.0"/></g></g><g id="stns_icons" fill="#fff" stroke-width="2"><a fill="#fff" xlink:href="#Line_1"><g id="stns_Line_1" stroke="#0101ff"><circle id="E1" cx="40" cy="360" r="3"/><circle id="E2" cx="220" cy="410" r="3"/><circle id="E3" cx="370" cy="470" r="3"/><circle id="E4" cx="490" cy="500" r="3"/><circle id="E5" cx="700" cy="600" r="3"/><circle id="E6" cx="730" cy="640" r="3"/></g></a><a fill="#fff" xlink:href="#Line_2"><g id="stns_Line_2" stroke="#ff0"><circle id="E10" cx="180" cy="460" r="3"/><circle id="E9" cx="370" cy="290" r="3"/><circle id="E8" cx="520" cy="260" r="3"/><circle id="E7" cx="670" cy="630" r="3"/></g></a><a fill="#fff" xlink:href="#Line_4"><g id="stns_Line_4" stroke="#0f0"><circle id="E14" cx="420" cy="790" r="3"/><circle id="E13" cx="440" cy="700" r="3"/><circle id="E12" cx="520" cy="140" r="3"/></g></a><a fill="#fff" xlink:href="#Line_13"><g id="stns_Line_13" stroke="red"><circle id="E11" cx="250" cy="120" r="3"/></g></a></g><g id="stns_labels" font-family="Arial" line-height="100%"><g id="lbLine_1" fill="#000"><text id="lbE1" x="25" y="375" font-size="12">E1</text><text id="lbE2" x="205" y="425" font-size="12">E2</text><text id="lbE3" x="355" y="485" font-size="12">E3</text><text id="lbE4" x="475" y="515" font-size="12">E4</text><text id="lbE5" x="685" y="615" font-size="12">E5</text><text id="lbE6" x="715" y="655" font-size="12">E6</text></g><g id="lbLine_2" fill="#000"><text id="lbE10" x="165" y="475" font-size="12">E10</text><text id="lbE9" x="355" y="305" font-size="12">E9</text><text id="lbE8" x="505" y="275" font-size="12">E8</text><text id="lbE7" x="655" y="645" font-size="12">E7</text></g><g id="lbLine_4" fill="#000"><text id="lbE14" x="405" y="805" font-size="12">E14</text><text id="lbE13" x="425" y="715" font-size="12">E13</text><text id="lbE12" x="505" y="155" font-size="12">E12</text></g><g id="lbLine_13" fill="#000"><text id="lbE11" x="235" y="135" font-size="12">E11</text></g></g><g id="edges_labels" font-family="Arial" line-height="100%"><g id="edLine_1" fill="#000"><text x="227.5" y="402.5" fill="#0101ff" font-size="12">(10.0)</text><text x="377.5" y="462.5" fill="#0101ff" font-size="12">(8.5)</text><text x="497.5" y="492.5" fill="#0101ff" font-size="12">(6.3)</text><text x="707.5" y="592.5" fill="#0101ff" font-size="12">(13.0)</text><text x="697.5" y="627.5" fill="#0101ff" font-size="12">(3.0)</text></g><g id="edLine_2" fill="#000"><text x="187.5" y="407.5" fill="#ff0" font-size="12">(3.5)</text><text x="377.5" y="287.5" fill="#ff0" font-size="12">(10.0)</text><text x="527.5" y="257.5" fill="#ff0" font-size="12">(9.6)</text><text x="662.5" y="587.5" fill="#ff0" font-size="12">(30.0)</text><text x="642.5" y="617.5" fill="#ff0" font-size="12">(2.4)</text></g><g id="edLine_4" fill="#000"><text x="407.5" y="692.5" fill="#0f0" font-size="12">(5.1)</text><text x="452.5" y="492.5" fill="#0f0" font-size="12">(12.8)</text><text x="487.5" y="247.5" fill="#0f0" font-size="12">(15.3)</text><text x="525" y="202.5" fill="#0f0" font-size="12">(6.4)</text></g><g id="edLine_13" fill="#000"><text x="342.5" y="272.5" fill="red" font-size="12">(12.2)</text><text x="380" y="382.5" fill="red" font-size="12">(9.4)</text><text x="407.5" y="687.5" fill="red" font-size="12">(18.7)</text></g></g></svg>